# xmcd
#
# Track frame offsets: 
#        150
#        12777
#        24035
#        36655
#        45917
#        55892
#        66197
#        83545
#        96677
#        109097
#        120677
#        134070
#        145737
#        156952
#        172825
#        184425
#        197495
#        208820
#        220975
#        232922
#        244347
#        255390
#        268102
#        277562
#        290415
#        305360
#
# Disc length: 4267 seconds
#
# Revision: 5
# Processed by: cddbd v1.5.2PL0 Copyright (c) Steve Scherf et al.
# Submitted via: ExactAudioCopyFreeDBPlugin 1.0
#
DISCID=7410a91a
DTITLE=Various Artist - The Fire-Fury Records Story [Capricon box set
DTITLE=]
DYEAR=1992
DGENRE=Rhythm and Blues
TTITLE0=Elmore James - Shake Your Moneymaker
TTITLE1=Buster Brown - Sugar Babe
TTITLE2=King Curtis and The Noble Knights - Soul Twist
TTITLE3=Lee Dorsey - Eenie Meenie Miny Mo
TTITLE4=Titus Turner - People Sure Act Funny (When They Get a Lotta' M
TTITLE4=oney)
TTITLE5=Ronnie Miller (and The Pips) - Long Time No See
TTITLE6=King Curtis - Mr. Crow
TTITLE7=Don Gardner and Dee Dee Ford - I Need Your Lovin'
TTITLE8=Mary "B" - Something for You Baby
TTITLE9=Titus Turner - Bow Wow (Life Ain't Nothing But Dog Eat Dog)
TTITLE10=Don Gardner and Dee Dee Ford - Don't You Worry
TTITLE11=Noble "Thin Man" Watts - Jookin'
TTITLE12=Titus Turner - All Around the World
TTITLE13=Dr. Horse - Jack, That Cat Was Clean
TTITLE14=Noble Watts and June Bateman - Go Away Mr. Blues
TTITLE15=Dr. Horse - Salt Pork, West Virginia
TTITLE16=Wild Jimmy Spruill - Cut and Dried
TTITLE17=Marshall Jones - You Can Do If it You Want To (ft Elmore Jame
TTITLE17=s, guitar) (previously unreleased)
TTITLE18=Lewis Jones - I Believe to My Soul
TTITLE19=King Curtis - Harmonica Twist
TTITLE20=Kip Anderson - I Will Cry
TTITLE21=Marshall Jones - Woke Up Happy (ft Elmore James, guitar) (pre
TTITLE21=viously unreleased)
TTITLE22=Les Cooper and The Soul Rockers - Wiggle Wobble
TTITLE23=Bobby Porter - Searching for Love
TTITLE24=Elmore James - It Hurts Me Too
TTITLE25=Joe Haywood - Strong Feeling
EXTD=
EXTT0=Elmore James\n
EXTT1=Buster Brown\n
EXTT2=King Curtis and the Noble Knights\n
EXTT3=Lee Dorsey\n
EXTT4=Titus Turner\n
EXTT5=Ronnie Miller (and the Pips]\n
EXTT6=King Curtis\n
EXTT7=Don Gardner and Dee Dee Ford\n
EXTT8=Mary B\n
EXTT9=Titus Turner\n
EXTT10=Don Gardner and Dee Dee Ford\n
EXTT11=Noble Thin Man Watts\n
EXTT12=Titus Turner\n
EXTT13=Dr. Horse\n
EXTT14=Noble Watts and June Bateman\n
EXTT15=Dr. Horse\n
EXTT16=Wild Jimmy Spruill\n
EXTT17=Marshall Jones\n
EXTT18=Lewis Jones\n
EXTT19=King Curtis\n
EXTT20=Kip Anderson\n
EXTT21=Marshall Jones\n
EXTT22=Les Cooper and The Soul Rockers\n
EXTT23=Bobby Porter\n
EXTT24=Elmore James\n
EXTT25=Joe Haywood\n
PLAYORDER=
